<svg xmlns="http://www.w3.org/2000/svg" width="38" height="38" viewBox="0 0 38 38">
  <g id="Group_429" data-name="Group 429" transform="translate(-126 -576)">
    <circle id="Ellipse_10" data-name="Ellipse 10" cx="19" cy="19" r="19" transform="translate(126 576)" fill="#f3f3f3"/>
    <g id="marker_2_" data-name="marker(2)" transform="translate(135.055 585.002)">
      <path id="Path_12" data-name="Path 12" d="M11.381,6a3.381,3.381,0,1,0,3.381,3.381A3.381,3.381,0,0,0,11.381,6Zm0,5.072a1.691,1.691,0,1,1,1.691-1.691A1.691,1.691,0,0,1,11.381,11.072Z" transform="translate(-0.936 -0.928)" fill="#31353b"/>
      <path id="Path_13" data-name="Path 13" d="M10.445,20.288A4.456,4.456,0,0,1,6.8,18.428C3.579,13.984,1.945,10.644,1.945,8.5a8.5,8.5,0,1,1,17,0c0,2.146-1.634,5.486-4.856,9.93a4.456,4.456,0,0,1-3.644,1.86Zm0-18.445A6.664,6.664,0,0,0,3.789,8.5c0,1.7,1.6,4.841,4.5,8.847a2.659,2.659,0,0,0,4.3,0c2.9-4.006,4.5-7.148,4.5-8.847a6.664,6.664,0,0,0-6.656-6.656Z" fill="#31353b"/>
    </g>
  </g>
</svg>
