<svg xmlns="http://www.w3.org/2000/svg" width="19.59" height="19.735" viewBox="0 0 19.59 19.735">
  <path id="hat-chef" d="M18.868,3.725a4.277,4.277,0,0,0-6.077-2.441,4.876,4.876,0,0,0-6.586,0c-5.091-2.6-9.046,4.836-3.573,7.2a.739.739,0,0,1,.534.674v6.282A3.562,3.562,0,0,0,6.727,19h5.541a3.562,3.562,0,0,0,3.562-3.562V9.155a.739.739,0,0,1,.534-.674,3.972,3.972,0,0,0,2.5-4.756Zm-4.62,11.712a1.979,1.979,0,0,1-1.979,1.979H6.727a2.049,2.049,0,0,1-1.979-2.375h9.5Zm1.583-8.448a2.305,2.305,0,0,0-1.583,2.166v4.3h-9.5v-4.3A2.305,2.305,0,0,0,3.165,6.989a2.4,2.4,0,0,1-1.5-2.872,2.634,2.634,0,0,1,4.1-1.187.8.8,0,0,0,1.221-.111,3.169,3.169,0,0,1,5.021,0,.8.8,0,0,0,1.221.111,2.508,2.508,0,0,1,2.3-.507h0a2.385,2.385,0,0,1,.308,4.567Z" transform="translate(0.268 0.485)" fill="#434250" stroke="#343844" stroke-width="0.5"/>
</svg>
